<?xml version="1.0" encoding="UTF-8" standalone="no"?>
<svg
   xmlns:svg="http://www.w3.org/2000/svg"
   xmlns="http://www.w3.org/2000/svg"
   viewBox="0 0 110.70918 102.92294">
  <path
     style="fill:#000000;stroke:#ffff00;stroke-width:2"
     d="m 26.258066,101.82726 c -0.0084,-0.1171 0.601184,-2.187732 1.354936,-4.601462 0.75373,-2.41371 1.306352,-4.43172 1.228036,-4.48448 -0.07835,-0.0528 -0.855068,-0.2628 -1.726109,-0.46679 -0.871042,-0.20399 -2.153123,-0.57754 -2.849059,-0.83011 -5.503363,-1.99723 -10.583619,-8.55886 -11.866635,-15.32684 -1.277471,-6.7387 1.244777,-17.45618 6.254247,-26.57545 0.773895,-1.4088 1.262022,-2.4872 1.161284,-2.56556 -0.09557,-0.0743 -4.678826,-0.22841 -10.184972,-0.34238 -11.8679449,-0.24565 -12.0259061,-0.11921 2.763559,-2.21209 5.284432,-0.74782 9.678193,-1.41264 9.763903,-1.47742 0.0857,-0.0647 1.061228,-1.54447 2.167815,-3.28823 4.965151,-7.82415 8.79917,-12.10855 17.1589,-19.17458 1.95276,-1.65056 4.406385,-3.68891 5.452501,-4.52967 1.046115,-0.84075 1.902033,-1.64377 1.902033,-1.78447 0,-0.14071 -0.269658,-2.13884 -0.599231,-4.4402897 -0.329584,-2.30145 -0.561832,-4.22626 -0.516105,-4.27737 0.04568,-0.051 1.301489,1.02307 2.790593,2.38706 1.489113,1.364 2.863037,2.6114397 3.053182,2.7721197 0.337534,0.28521 0.386853,0.2694 2.082221,-0.6678297 3.36591,-1.8607 8.000164,-3.87366 12.150293,-5.27769 2.478873,-0.83862 7.30658,-1.80301 9.346404,-1.86706 7.22944,-0.22698 13.459669,3.23377 17.081856,9.4885897 1.54298,2.66443 1.979562,4.19514 2.108016,7.39098 0.05997,1.49123 0.02268,2.66465 -0.09127,2.87699 -0.153103,0.28529 -0.218953,0.17388 -0.322002,-0.54476 -0.308852,-2.15385 -1.206128,-4.72065 -2.312905,-6.61637 -2.964112,-5.07708 -9.877086,-8.6648497 -16.808691,-8.7235497 -2.529789,-0.0214 -7.246601,0.94945 -10.180362,2.09548 -2.995745,1.17023 -9.726083,4.3958697 -9.726083,4.6613797 0,0.12018 0.768706,0.95845 1.708223,1.86286 4.329886,4.16806 6.561325,8.19407 10.671303,19.25333 1.541741,4.14855 2.07613,5.37457 2.326579,5.33769 0.178813,-0.0263 5.674467,-0.55009 12.212551,-1.16389 8.919264,-0.83736 11.940813,-1.17839 12.101204,-1.36587 0.466051,-0.54477 2.779513,-7.07796 3.518225,-9.93544 1.793274,-6.93672 1.307124,-15.00908 -1.157629,-19.2220197 -2.212398,-3.78162 -6.707443,-6.53371 -11.318015,-6.92945 -0.697144,-0.0598 -0.90007,-0.12945 -0.571767,-0.19618 0.866977,-0.17621003 3.501274,0.0987 4.968774,0.51848 3.118654,0.89207 6.091483,2.55758 8.006056,4.48536 5.107255,5.1424997 5.680645,15.5669297 1.535945,27.9239297 -0.54761,1.63264 -0.938657,3.0129 -0.86901,3.06726 0.0696,0.0543 2.44044,-0.12422 5.2684,-0.39681 l 5.14175,-0.49565 -5.40338,1.52835 c -2.97186,0.84058 -5.581464,1.6268 -5.799124,1.74713 -0.262422,0.14508 -0.847894,1.22894 -1.737977,3.21741 -4.150128,9.2716 -9.246999,16.46896 -17.678966,24.96469 l -1.342963,1.35312 1.995745,8.37424 c 1.097661,4.60585 1.967253,8.40596 1.932417,8.44471 -0.03487,0.0388 -1.34541,-3.22327 -2.912388,-7.24892 -1.566978,-4.02564 -2.937468,-7.30404 -3.045537,-7.28532 -0.108069,0.0186 -0.992259,0.71002 -1.964868,1.53625 -3.554553,3.0196 -8.751322,6.57491 -14.736489,10.0818 -10.82887,6.34497 -17.254526,8.80924 -25.052035,9.60756 -1.783105,0.18254 -3.503658,0.36722 -3.823443,0.4104 -0.57077,0.0772 -0.616602,0.15785 -2.50138,4.4082 -1.055987,2.38132 -1.958914,4.420082 -2.006521,4.530592 -0.04905,0.1139 -0.09326,0.10871 -0.102082,-0.0119 z M 47.266612,83.833158 c 6.893009,-1.89655 18.070713,-8.17408 26.181834,-14.70401 0.945587,-0.76125 1.719251,-1.45146 1.719251,-1.53381 0,-0.2913 -5.046575,-13.05104 -5.392427,-13.6342 -0.911906,-1.53759 -4.069544,-4.42117 -6.132788,-5.60049 -0.825525,-0.47185 -1.353224,-0.59558 -2.849049,-0.66804 -5.840981,-0.28291 -8.076883,0.11598 -9.931551,1.7718 -1.976726,1.76477 -4.311749,6.53323 -14.27783,29.1573 -1.689319,3.83494 -3.071498,7.05564 -3.071498,7.1571 0,0.21066 1.571925,0.12974 5.108653,-0.26299 2.725436,-0.30263 5.815807,-0.90418 8.645405,-1.68266 z m -15.232596,-0.78721 c 7.070203,-22.53468 11.034325,-35.47073 10.903256,-35.58043 -0.145919,-0.12212 -17.208492,-0.54193 -17.817731,-0.43838 -0.504185,0.0857 -4.373093,8.5946 -5.623069,12.36684 -1.313525,3.96404 -1.604681,5.67721 -1.603851,9.43688 5.77e-4,2.69009 0.07352,3.59638 0.36965,4.59224 1.184546,3.98387 4.372168,8.06165 7.923318,10.13592 1.368284,0.79924 4.233454,1.84139 4.816039,1.75174 0.260027,-0.0402 0.498493,-0.56317 1.032388,-2.26481 z m 49.26189,-21.70658 c 4.47965,-5.12063 6.717789,-8.20491 9.038266,-12.4552 1.338552,-2.45177 3.931344,-7.86246 3.812111,-7.95519 -0.05724,-0.0445 -1.366719,0.31252 -2.90992,0.79349 -1.5432,0.48093 -4.397363,1.31367 -6.342582,1.85053 -1.945219,0.53684 -4.002718,1.17281 -4.572228,1.41323 -2.484313,1.04885 -4.102826,2.75585 -4.547431,4.79602 -0.532037,2.44138 -0.03949,7.80308 1.174128,12.78058 0.317506,1.30223 0.577281,2.4102 0.577281,2.46217 0,0.45589 1.016835,-0.53808 3.770375,-3.68563 z M 66.999223,39.490198 c -0.255385,-0.72636 -6.147355,-12.6398 -7.387301,-14.93698 -2.062824,-3.82171 -3.474546,-5.73514 -4.312221,-5.84472 -0.219845,-0.0288 -0.437769,-0.01 -0.484241,0.0422 -0.04653,0.052 -0.349528,1.80495 -0.67342,3.89554 -0.832781,5.37539 -1.255552,7.46725 -2.483588,12.28887 -0.593917,2.3319 -1.044288,4.33487 -1.00083,4.45104 0.0774,0.20685 14.785997,0.74091 15.927032,0.57829 0.486741,-0.0694 0.536795,-0.12666 0.414569,-0.47422 z m -20.272871,-5.4921 c 2.085908,-7.913 2.529589,-10.07597 2.651489,-12.92625 0.08769,-2.05069 0.05997,-2.38427 -0.194366,-2.34105 -0.38092,0.0647 -4.028565,3.09903 -6.427337,5.3466 -2.277869,2.13425 -5.413505,5.60912 -7.771873,8.61269 -3.832212,4.88061 -7.018049,9.23005 -6.85184,9.35443 0.156705,0.11726 8.766947,-1.03619 14.723139,-1.97237 l 2.367737,-0.37217 z"
     id="path833" />
</svg>
